<?xml version="1.0" standalone="no"?>
<!DOCTYPE svg PUBLIC "-//W3C//DTD SVG 20010904//EN"
 "http://www.w3.org/TR/2001/REC-SVG-20010904/DTD/svg10.dtd">
<svg version="1.0" xmlns="http://www.w3.org/2000/svg"
 width="512.000000pt" height="512.000000pt" viewBox="0 0 512.000000 512.000000"
 preserveAspectRatio="xMidYMid meet">

<g transform="translate(0.000000,512.000000) scale(0.100000,-0.100000)"
fill="#000000" stroke="none">
<path d="M186 4894 c-34 -11 -64 -31 -102 -68 -92 -93 -85 81 -82 -1932 l3
-1770 27 -41 c14 -22 43 -48 65 -59 37 -18 80 -19 1203 -22 641 -2 1180 0
1198 3 66 12 95 82 52 125 -20 20 -33 20 -1198 20 -903 0 -1181 3 -1190 12 -9
9 -12 363 -12 1530 l0 1518 515 0 c283 0 515 -3 515 -6 0 -3 -34 -42 -75 -86
-186 -198 -318 -469 -367 -753 -17 -101 -19 -148 -15 -295 5 -181 17 -256 64
-405 156 -497 575 -886 1080 -1000 400 -91 805 -21 1151 198 l64 40 163 -163
163 -163 -19 -31 c-23 -37 -25 -115 -5 -154 8 -15 60 -72 115 -127 56 -55 101
-103 101 -107 0 -5 -182 -8 -405 -8 -403 0 -404 0 -425 -22 -37 -40 -22 -98
31 -117 22 -7 183 -11 498 -11 l466 0 390 -389 c342 -342 395 -391 432 -401
86 -22 108 -8 312 193 183 182 220 231 221 290 0 60 -31 102 -211 282 l-179
180 -3 394 -2 393 -28 24 c-34 29 -56 30 -91 3 l-26 -20 0 -315 c0 -173 -3
-314 -8 -314 -4 0 -144 137 -312 305 -328 328 -349 345 -427 330 -21 -3 -49
-13 -62 -22 -23 -15 -26 -13 -187 148 l-163 164 45 70 c94 145 164 320 205
515 30 142 32 409 5 550 -59 302 -192 560 -405 783 l-45 47 674 -2 675 -3 3
-1001 c2 -988 2 -1001 22 -1019 28 -25 76 -23 103 4 l22 22 0 1242 c0 1158 -1
1245 -17 1280 -28 62 -73 111 -130 143 l-53 29 -380 3 c-209 2 -390 0 -403 -3
-52 -13 -58 -108 -9 -134 15 -7 140 -12 394 -13 l372 -3 30 -29 c42 -41 51
-80 51 -233 l0 -133 -774 0 -773 0 -76 45 c-168 102 -394 173 -612 195 -307
31 -639 -45 -906 -206 l-57 -34 -616 0 -616 0 0 150 c0 169 8 197 63 230 31
20 63 20 1643 20 1560 0 1613 1 1635 19 32 26 32 86 0 112 -22 18 -75 19
-1640 18 -1407 0 -1622 -2 -1665 -15z m2284 -464 c541 -110 948 -521 1057
-1067 23 -119 24 -375 0 -493 -99 -498 -460 -899 -934 -1039 -189 -56 -425
-70 -613 -37 -494 87 -904 444 -1050 916 -43 138 -60 255 -60 405 0 369 132
688 390 945 117 117 214 188 348 255 269 133 573 174 862 115z m1018 -2463
l152 -152 -65 -65 -65 -65 -156 156 -156 156 59 60 c32 34 63 61 68 62 6 0 79
-68 163 -152z m850 -630 l472 -472 -175 -175 -175 -175 -470 470 c-259 258
-470 474 -470 480 0 10 330 345 340 345 3 0 218 -213 478 -473z m609 -609 c13
-12 23 -26 23 -33 0 -6 -77 -87 -170 -180 l-170 -169 -33 32 -32 32 170 170
c93 94 174 170 179 170 5 0 20 -10 33 -22z"/>
<path d="M2035 4339 c-532 -78 -953 -487 -1046 -1019 -19 -106 -16 -325 5
-433 97 -497 474 -878 976 -984 118 -24 363 -24 480 1 237 51 436 155 607 318
250 239 383 549 383 892 0 688 -557 1242 -1240 1235 -58 -1 -132 -5 -165 -10z
m351 -154 c241 -42 438 -147 608 -325 184 -193 280 -420 293 -691 7 -155 -7
-259 -53 -399 -151 -457 -592 -760 -1074 -737 -372 19 -704 218 -890 536 -148
254 -186 566 -104 848 114 394 447 694 850 767 106 19 262 19 370 1z"/>
<path d="M2016 3749 c-266 -65 -419 -107 -438 -120 -58 -41 -76 -134 -39 -194
10 -17 112 -121 227 -232 l209 -202 60 -267 c32 -147 66 -281 75 -298 33 -66
131 -97 198 -62 15 8 179 167 364 353 289 290 337 343 343 375 13 70 -16 133
-76 163 -16 9 -106 33 -200 54 -94 22 -173 42 -176 44 -3 3 9 72 26 152 17 80
31 169 31 197 0 46 -4 54 -44 94 -41 41 -47 44 -97 43 -32 0 -218 -40 -463
-100z m454 -58 c0 -8 -44 -233 -55 -277 -5 -21 -6 -21 -176 17 -95 22 -179 39
-187 39 -29 0 -100 -41 -117 -67 -10 -14 -20 -49 -24 -76 l-6 -51 -119 114
c-99 96 -115 115 -100 122 11 4 125 33 254 64 129 31 294 71 365 89 140 36
165 40 165 26z m-167 -427 c71 -16 78 -19 73 -38 -2 -12 -19 -92 -37 -178
l-32 -157 -96 91 -96 90 -27 112 c-15 61 -28 116 -28 122 0 8 25 6 83 -7 45
-10 117 -26 160 -35z m420 -95 l148 -33 -312 -312 c-172 -172 -315 -311 -317
-309 -9 9 -69 285 -62 285 4 0 15 -9 25 -20 25 -27 85 -44 129 -36 49 9 103
59 116 106 6 21 24 105 40 186 37 183 35 177 63 171 12 -3 89 -20 170 -38z"/>
<path d="M1545 2935 c-14 -13 -25 -36 -25 -50 0 -33 42 -75 75 -75 33 0 75 42
75 75 0 33 -42 75 -75 75 -14 0 -37 -11 -50 -25z"/>
<path d="M1768 2946 c-28 -21 -38 -58 -23 -92 31 -74 135 -50 135 31 0 60 -66
96 -112 61z"/>
<path d="M1545 2685 c-14 -13 -25 -36 -25 -50 0 -33 42 -75 75 -75 33 0 75 42
75 75 0 33 -42 75 -75 75 -14 0 -37 -11 -50 -25z"/>
<path d="M1768 2696 c-28 -21 -38 -58 -23 -92 31 -75 135 -51 135 30 0 58 -68
96 -112 62z"/>
<path d="M494 4607 c-53 -46 -23 -127 47 -127 66 0 95 88 43 129 -34 27 -57
26 -90 -2z"/>
<path d="M686 4607 c-33 -33 -34 -76 -3 -105 33 -31 80 -29 106 4 39 50 16
108 -46 120 -26 5 -37 1 -57 -19z"/>
<path d="M884 4607 c-54 -47 -24 -127 47 -127 66 0 95 88 43 129 -34 27 -57
26 -90 -2z"/>
<path d="M4195 4015 l-25 -24 0 -790 c0 -566 3 -797 11 -815 23 -51 103 -55
128 -7 8 13 11 274 11 816 l0 796 -25 24 c-13 14 -36 25 -50 25 -14 0 -37 -11
-50 -25z"/>
<path d="M475 1915 c-55 -54 -13 -125 73 -125 38 0 53 5 70 23 51 54 8 127
-73 127 -35 0 -52 -6 -70 -25z"/>
<path d="M695 1915 c-14 -13 -25 -36 -25 -50 0 -14 11 -37 25 -50 23 -24 28
-25 174 -25 82 0 157 3 166 6 28 11 46 58 34 92 -15 45 -44 52 -205 52 -141 0
-146 -1 -169 -25z"/>
<path d="M475 1715 c-14 -13 -25 -36 -25 -50 0 -14 11 -37 25 -50 l24 -25 255
0 c277 0 298 3 315 52 12 34 -6 81 -34 92 -9 3 -133 6 -276 6 l-260 0 -24 -25z"/>
<path d="M471 1514 c-26 -33 -27 -65 -2 -95 19 -24 19 -24 284 -27 l265 -3 28
24 c35 31 38 82 5 109 -21 16 -46 18 -291 18 l-269 0 -20 -26z"/>
</g>
</svg>
